<svg id="logo" xmlns="http://www.w3.org/2000/svg" viewBox="0 0 700 110">
    <path width="1000" fill="#F7D104" stroke="black" stroke-width="3"
          d="M53.28 5.88Q52.99 6.93 52.05 8.81Q51.99 8.81 46.48 9.80Q42.91 10.45 42.09 12.27Q41.33 13.09 40.21 14.67Q40.04 15.20 37.87 22.99L37.46 59.90Q36.82 61.72 36.82 61.95Q36.82 61.84 37.46 63.48L37.23 74.55Q36.58 76.78 37.23 80.82Q37.87 85.45 39.80 88.38Q40.45 89.43 43.14 90.61Q47.89 92.71 52.64 92.66Q52.64 93.65 51.64 95.47L40.86 95.47Q40.68 95.47 37.78 95.26Q34.88 95.06 34.65 95.06Q34.41 95.06 32.22 95.26Q30.02 95.47 29.67 95.47Q29.55 95.47 28.00 95.26Q26.45 95.06 26.15 95.06Q25.92 95.06 24.95 95.26Q23.98 95.47 23.75 95.47L4.36 95.70Q1.89 95.70 1.89 94.36Q1.89 92.66 3.13 92.36Q6.11 91.89 9.10 91.54Q12.56 90.96 13.50 89.61Q13.96 88.79 14.61 86.97Q15.90 87.03 18.59 87.44Q19.59 84.45 19.59 83.63Q19.59 82.87 18.59 81.52Q19.36 80.06 18.83 79.06Q18.48 78.36 17.19 76.66Q16.02 75.14 16.02 74.96Q16.02 75.43 17.54 70.57Q17.71 70.10 17.01 69.04Q18.59 67.05 18.59 66.23Q18.59 66.11 18.07 61.60Q18.07 61.19 17.42 60.20Q16.78 59.20 16.78 59.02Q16.78 58.67 17.54 58.09Q17.42 58.32 17.42 57.27L17.42 48.54Q17.42 48.36 17.77 47.28Q18.13 46.19 18.13 46.02Q18.13 45.84 17.86 45.46Q17.60 45.08 17.60 44.84Q17.54 43.79 17.83 37.87Q17.95 37.17 17.74 35.50Q17.54 33.83 17.54 33.83L17.54 25.10Q17.54 24.34 16.19 22.87Q16.54 22.11 15.55 19.88Q15.55 18.95 14.96 16.84Q14.32 16.19 13.09 15.02Q12.68 14.32 11.80 12.91Q9.98 10.68 8.28 10.04Q6.23 9.69 1.89 8.46Q2.13 7.46 2.83 5.88L3.71 5.88Q3.95 5.88 5.44 6.00Q6.93 6.11 7.17 6.11L42.79 6.11L53.28 5.88ZM64.18 23.11L64.94 25.33L67.05 25.33L68.98 23.81L80.06 23.81L83.46 23.11L84.22 23.81L83.46 24.57L83.46 28.96L85.51 31.78L85.51 33.89L82.70 36.88L82.11 36.88Q77.71 32.19 72.44 29.67L58.79 29.67Q58.79 31.43 54.75 34.65L54.75 36.05Q54.75 41.97 58.79 41.97Q62.07 44.61 66.35 45.49L66.35 46.19L67.05 45.49L67.70 45.49Q72.44 46.84 72.44 49.06L73.20 48.42L75.25 48.42Q77.30 50.59 84.22 53.40Q90.31 62.13 90.31 65.70L90.96 65.70Q90.96 81.70 75.90 85.86L62.95 88.73Q50.35 88.73 41.74 78.54L40.27 75.84L40.27 72.21L47.13 65L55.98 61.31L56.68 62.07L56.68 64.24Q56.68 69.28 49.12 69.28L47.83 72.85Q49.30 81.46 52.58 81.46L53.34 80.76L53.93 80.76Q57.91 82.93 62.25 82.93Q74.79 82.93 78.01 73.67L78.65 72.85L78.65 67.17Q70.80 58.32 62.25 56.97Q62.25 55.57 60.14 55.57L58.09 56.33L45.72 48.42L44.32 36.88Q47.30 31.19 53.93 26.80L63.54 23.81L64.18 23.11ZM117.27 20.06L120.55 20.06L121.95 21.70L121.95 27.21L120.55 28.79L118.61 27.97Q112.05 28.50 112.05 30.31L112.05 34.24L110.53 45.02Q111.29 53.87 112.58 56.09L112.05 63.13L112.58 63.95L112.58 64.59L112.05 67.70Q112.58 70.98 115.98 70.98L117.85 69.28L119.26 69.28L120.55 70.98L136.02 69.28L136.02 67.70L134.67 65.41L134.67 64.59L136.02 63.13L140 63.13L142.05 64.59L141.29 74.02L141.29 76.31Q141.52 81.05 136.31 79.77L129.28 78.71L112.05 77.95L111.29 78.71L110.53 78.71L105.96 77.95L90.66 79.47L89.90 78.71L89.90 71.68Q89.90 70.16 91.95 70.16L95.23 72.50Q97.64 72.50 99.16 61.60L97.87 60.02L98.63 56.09L97.23 45.84L97.87 45.02Q95.94 45.02 95.94 43.55Q95.94 40.92 97.87 38.05L97.23 29.49Q94.88 29.49 91.95 25.51L91.95 23.98L93.24 22.46L94.65 22.46L101.97 23.28L103.96 21.70L107.25 22.46L112.58 22.46Q114.86 22.46 117.27 20.06M97.34 42.21L98.11 43.03L98.69 43.03L100.16 41.45L99.45 40.63L98.69 40.63L97.34 42.21ZM142.87 21.70Q150.55 22.23 150.55 24.10L151.19 23.28L187.17 23.28L190.57 22.52Q190.57 29.79 195.49 38.63Q194.79 40.86 191.27 40.86Q185.82 30.96 175.45 27.09L167.13 27.09L166.43 27.85L165.72 27.85L166.43 28.67L166.43 30.14L165.02 32.48L165.02 37.75L164.43 42.44L165.02 44.73L164.43 44.73L165.02 49.41L169.82 48.59L171.29 48.59L174.10 49.41Q183.71 47.48 183.71 42.44L184.41 42.44L186.46 44.73L185.82 47.01L187.17 58.55L185 60.14L184.41 60.14L183.71 59.38Q183.71 53.16 169.12 53.16L167.13 53.16L165.72 54.75L166.43 60.90L166.25 64.77L166.07 66.11L164.84 66.29L166.43 71.74Q166.43 73.20 170.64 73.20L171.99 74.73L172.70 73.91L173.34 73.91L179.49 74.73L181.72 73.91L187.81 74.73L190.74 76.78L193.38 73.20L194.14 73.20L196.89 73.91Q201.82 73.91 206.56 65.47L209.32 70.92L207.21 78.48L188.57 79.30L151.89 79.30L149.84 80.88L144.98 80.88Q143.57 80.41 142.23 77.01L148.44 74.73L148.44 67.11L149.84 64.82L149.84 49.41L149.20 40.86L149.84 34.77L146.97 30.14Q145.63 30.14 145.63 27.09Q142.23 27.09 142.23 25.57L142.23 23.28L142.87 22.52L142.87 21.70M148.96 30.90L150.14 32.36L150.78 32.36L150.78 30.02L148.96 30.90ZM224.02 23.11L224.79 25.33L226.89 25.33L228.83 23.81L239.90 23.81L243.30 23.11L244.06 23.81L243.30 24.57L243.30 28.96L245.35 31.78L245.35 33.89L242.54 36.88L241.95 36.88Q237.56 32.19 232.29 29.67L218.63 29.67Q218.63 31.43 214.59 34.65L214.59 36.05Q214.59 41.97 218.63 41.97Q221.91 44.61 226.19 45.49L226.19 46.19L226.89 45.49L227.54 45.49Q232.29 46.84 232.29 49.06L233.05 48.42L235.10 48.42Q237.15 50.59 244.06 53.40Q250.16 62.13 250.16 65.70L250.80 65.70Q250.80 81.70 235.74 85.86L222.79 88.73Q210.20 88.73 201.58 78.54L200.12 75.84L200.12 72.21L206.97 65L215.82 61.31L216.52 62.07L216.52 64.24Q216.52 69.28 208.96 69.28L207.68 72.85Q209.14 81.46 212.42 81.46L213.18 80.76L213.77 80.76Q217.75 82.93 222.09 82.93Q234.63 82.93 237.85 73.67L238.50 72.85L238.50 67.17Q230.64 58.32 222.09 56.97Q222.09 55.57 219.98 55.57L217.93 56.33L205.57 48.42L204.16 36.88Q207.15 31.19 213.77 26.80L223.38 23.81L224.02 23.11ZM333.71 48.24Q332.54 49.00 333.71 50.88Q333.54 56.39 333.30 57.62Q332.54 61.31 330.20 62.77Q329.90 63.18 329.90 64.30Q329.90 65.41 329.67 65.88Q324.86 73.20 318.07 77.60Q310.63 82.34 302.77 81.93Q301.66 82.11 300.49 82.11Q299.20 82.11 291.29 80.35Q290.47 80.18 288.95 79.00Q287.42 77.83 286.31 77.83Q285.84 77.83 285.31 78.07Q282.73 75.84 280.10 73.61Q277.29 70.98 276.46 68.05Q275.35 67.81 274.74 66.49Q274.12 65.18 273.59 63.89Q273.30 63.42 273.30 62.89Q273.30 62.01 273.83 60.87Q274.36 59.73 274.36 59.26Q274.36 58.26 272.77 57.97Q273.13 49.47 273.18 48.54Q273.71 43.20 275.64 39.92Q278.52 37.87 278.34 35.41Q284.08 29.49 287.42 27.09Q292.81 23.22 298.38 23.11L300.14 22.52Q306.82 22.70 313.38 23.11Q321.00 23.75 325.16 27.73Q325.16 27.73 327.85 30.08Q329.49 31.43 329.20 33.48Q333.54 38.16 333.71 48.24M319.06 55.98Q319.71 54.86 319.71 53.40Q319.71 52.23 319.12 49.74Q318.54 47.25 318.54 45.96Q317.36 45.31 316.63 43.35Q315.90 41.39 315.25 40.68Q314.49 38.69 312.44 36.64Q312.44 36.64 308.57 33.48L302.71 32.60Q300.49 32.95 298.32 33.36Q295.63 34.00 294.57 35.64Q294.34 36.52 293.40 37.99Q291.52 38.28 290.76 40.57Q289.71 43.44 289.00 44.02Q287.77 48.36 287.77 50.64Q287.77 51.70 287.95 52.64Q288.24 55.16 288.36 57.68Q288.65 60.72 290.29 62.07Q290.47 64.06 292.64 65.76Q295.80 68.05 296.27 68.81Q296.97 68.98 298.91 69.92Q300.55 70.74 301.72 70.74Q302.13 70.74 302.66 70.63Q305.29 70.39 307.93 70.33Q311.15 70.04 312.62 68.40Q318.24 64.82 319.06 55.98ZM332.66 22.23Q340.27 22.81 340.27 24.57L340.92 23.75L376.37 23.75L379.71 23.05Q379.71 30.25 384.57 38.87Q383.87 41.09 380.47 41.09Q375.02 31.31 364.82 27.56L356.62 27.56L355.92 28.26L355.27 28.26L355.92 29.08L355.92 30.55L354.57 32.83L354.57 38.05L353.93 42.62L354.57 44.84L353.93 44.84L354.57 49.47L359.26 48.65L360.72 48.65L363.48 49.47Q372.91 47.60 372.91 42.62L373.61 42.62L375.66 44.84L375.02 47.13L376.37 58.50L374.26 60.02L373.61 60.02L372.91 59.32Q372.91 53.16 358.55 53.16L356.62 53.16L355.27 54.69L355.92 60.84L355.27 61.48L354.57 61.48L355.92 66.11L355.92 71.39Q355.92 72.85 359.55 75.49L358.14 76.43L361.60 76.43Q365.53 79.94 360.43 79.77L342.79 79.94L339.57 80.41L334.77 80.41Q333.42 79.94 332.07 76.60L338.22 74.38L338.22 66.82L339.57 64.59L339.57 49.47L338.93 41.09L339.57 35.06L336.76 30.55Q335.41 30.55 335.41 27.56Q332.07 27.56 332.07 26.04L332.07 23.75L332.66 23.05L332.66 22.23M341.27 41.80L342.44 43.32L343.09 43.32L343.09 40.92L341.27 41.80ZM403.20 3.01L440.53 6.05L488.63 3.01L490.63 6.05Q480.55 24.28 475.86 37.52L472.93 37.52L472.93 21.29Q466.19 10.10 458.22 10.10Q450.31 10.10 450.31 34.47Q448.09 67.99 445.45 67.99L449.38 72.03L449.38 87.32Q449.38 94.41 462.15 99.45L462.15 100.51L461.15 101.50L460.16 101.50L435.61 99.45L421.84 100.51L420.84 99.45L420.84 98.46Q428.28 94.77 430.68 89.32L430.68 80.18L431.68 64.94L430.68 58.85L432.68 46.66L430.68 44.61L430.68 20.29Q430.68 14.73 426.76 12.15Q413.34 18.18 408.07 35.47Q408.07 38.57 404.14 41.62L401.21 41.62L401.21 34.47L405.14 19.24L401.21 5.06L403.20 3.01ZM497.01 23.93L504.57 23.93L514.12 24.57L530.47 23.11L531.17 23.93L531.17 25.27Q531.17 26.80 527.13 27.50Q522.73 27.50 522.27 45.02L523.55 59.73L523.55 68.52Q523.55 74.14 531.82 76.66L531.82 77.30L529.77 79.47L502.52 79.47L500.47 77.30L501.88 75.78L505.98 75.78L509.38 66.29L508.73 61.25L509.38 55.33L494.38 51.64L488.16 51.64Q488.16 55.16 479.96 72.97Q467.54 89.02 449.96 89.02Q447.21 87.85 447.21 86.74Q448.50 86.74 449.32 83.05L452.71 83.81L456.76 83.81L462.97 80.12Q462.97 78.13 465.78 75.08Q468.89 59.73 471.05 59.73L471.05 56.80L469.71 54.51L469.71 53.93Q469.71 52.40 471.70 52.40L471.70 50.18Q471.70 47.42 468.36 42.09Q468.36 40.74 475.16 40.04Q482.66 29.49 491.62 26.80Q491.62 24.86 497.01 23.93M492.79 41.86L492.79 42.50Q492.79 43.96 507.32 45.20L507.91 45.20L510.96 43.44L507.68 42.56L508.55 39.28Q507.32 39.28 507.32 32.66L506.68 32.07L504.16 32.07Q495.20 35.23 492.79 41.86ZM560.41 20.06L563.69 20.06L565.10 21.70L565.10 27.21L563.69 28.79L561.76 27.97Q555.20 28.50 555.20 30.31L555.20 34.24L553.67 45.02Q554.43 53.87 555.72 56.09L555.20 63.13L555.72 63.95L555.72 64.59L555.20 67.70Q555.72 70.98 559.12 70.98L561.00 69.28L562.40 69.28L563.69 70.98L579.16 69.28L579.16 67.70L577.81 65.41L577.81 64.59L579.16 63.13L583.14 63.13L585.20 64.59L584.43 74.02L584.43 76.31Q584.67 81.05 579.45 79.77L572.42 78.71L555.20 77.95L554.43 78.71L553.67 78.71L549.10 77.95L533.81 79.47L533.05 78.71L533.05 71.68Q533.05 70.16 535.10 70.16L538.38 72.50Q540.78 72.50 542.30 61.60L541.02 60.02L541.78 56.09L540.37 45.84L541.02 45.02Q539.08 45.02 539.08 43.55Q539.08 40.92 541.02 38.05L540.37 29.49Q538.03 29.49 535.10 25.51L535.10 23.98L536.39 22.46L537.79 22.46L545.12 23.28L547.11 21.70L550.39 22.46L555.72 22.46Q558.01 22.46 560.41 20.06M540.49 42.21L541.25 43.03L541.84 43.03L543.30 41.45L542.60 40.63L541.84 40.63L540.49 42.21ZM586.02 21.70Q593.69 22.23 593.69 24.10L594.34 23.28L630.31 23.28L633.71 22.52Q633.71 29.79 638.63 38.63Q637.93 40.86 634.41 40.86Q628.96 30.96 618.59 27.09L610.27 27.09L609.57 27.85L608.87 27.85L609.57 28.67L609.57 30.14L608.16 32.48L608.16 37.75L607.58 42.44L608.16 44.73L607.58 44.73L608.16 49.41L612.97 48.59L614.43 48.59L617.25 49.41Q626.86 47.48 626.86 42.44L627.56 42.44L629.61 44.73L628.96 47.01L630.31 58.55L628.14 60.14L627.56 60.14L626.86 59.38Q626.86 53.16 612.27 53.16L610.27 53.16L608.87 54.75L609.57 60.90L609.39 64.77L609.22 66.11L607.99 66.29L609.57 71.74Q609.57 73.20 613.79 73.20L615.14 74.73L615.84 73.91L616.48 73.91L622.64 74.73L624.86 73.91L630.96 74.73L633.89 76.78L636.52 73.20L637.29 73.20L640.04 73.91Q644.96 73.91 649.71 65.47L652.46 70.92L650.35 78.48L631.72 79.30L595.04 79.30L592.99 80.88L588.13 80.88Q586.72 80.41 585.37 77.01L591.58 74.73L591.58 67.11L592.99 64.82L592.99 49.41L592.34 40.86L592.99 34.77L590.12 30.14Q588.77 30.14 588.77 27.09Q585.37 27.09 585.37 25.57L585.37 23.28L586.02 22.52L586.02 21.70M592.11 30.90L593.28 32.36L593.93 32.36L593.93 30.02L592.11 30.90ZM667.17 23.11L667.93 25.33L670.04 25.33L671.97 23.81L683.05 23.81L686.45 23.11L687.21 23.81L686.45 24.57L686.45 28.96L688.50 31.78L688.50 33.89L685.68 36.88L685.10 36.88Q680.70 32.19 675.43 29.67L661.78 29.67Q661.78 31.43 657.73 34.65L657.73 36.05Q657.73 41.97 661.78 41.97Q665.06 44.61 669.34 45.49L669.34 46.19L670.04 45.49L670.68 45.49Q675.43 46.84 675.43 49.06L676.19 48.42L678.24 48.42Q680.29 50.59 687.21 53.40Q693.30 62.13 693.30 65.70L693.95 65.70Q693.95 81.70 678.89 85.86L665.94 88.73Q653.34 88.73 644.73 78.54L643.26 75.84L643.26 72.21L650.12 65L658.96 61.31L659.67 62.07L659.67 64.24Q659.67 69.28 652.11 69.28L650.82 72.85Q652.29 81.46 655.57 81.46L656.33 80.76L656.91 80.76Q660.90 82.93 665.23 82.93Q677.77 82.93 681.00 73.67L681.64 72.85L681.64 67.17Q673.79 58.32 665.23 56.97Q665.23 55.57 663.13 55.57L661.07 56.33L648.71 48.42L647.30 36.88Q650.29 31.19 656.91 26.80L666.52 23.81L667.17 23.11Z"/>
</svg>

